<?xml version="1.0" encoding="utf-8"?>
<!-- Generator: Adobe Illustrator 25.4.1, SVG Export Plug-In . SVG Version: 6.00 Build 0)  -->
<svg version="1.1" id="Layer_1" xmlns="http://www.w3.org/2000/svg" xmlns:xlink="http://www.w3.org/1999/xlink" x="0px" y="0px"
	 viewBox="0 0 16 16" style="enable-background:new 0 0 16 16;" xml:space="preserve">
<style type="text/css">
	.st0{fill:url(#SVGID_1_);}
	.st1{fill:#FFFFFF;}
</style>
<g>
	<linearGradient id="SVGID_1_" gradientUnits="userSpaceOnUse" x1="8" y1="16.1891" x2="8" y2="-0.0115">
		<stop  offset="0" style="stop-color:#108386"/>
		<stop  offset="1" style="stop-color:#242E5D"/>
	</linearGradient>
	<path class="st0" d="M12.3,16H3.7C1.66,16,0,14.34,0,12.3L0,3.7C0,1.66,1.66,0,3.7,0l8.61,0C14.34,0,16,1.66,16,3.7v8.61
		C16,14.34,14.34,16,12.3,16z"/>
	<g>
		<path class="st1" d="M9.86,6.2c0,0.38-0.12,0.69-0.37,0.93C9.24,7.37,8.92,7.49,8.52,7.49H6.68c-0.05,0-0.07-0.02-0.07-0.07V4.97
			c0-0.05,0.02-0.07,0.07-0.07h1.84c0.39,0,0.71,0.12,0.96,0.36C9.74,5.51,9.86,5.82,9.86,6.2 M11.91,13.06
			c0-0.02-0.01-0.05-0.03-0.09L9.97,8.93c-0.02-0.05,0-0.08,0.04-0.1c0.57-0.19,1.02-0.52,1.34-0.98c0.32-0.46,0.48-1.02,0.48-1.66
			c0-0.6-0.12-1.13-0.37-1.59c-0.25-0.46-0.6-0.81-1.05-1.06C9.95,3.3,9.42,3.17,8.82,3.17H4.8c-0.05,0-0.09,0.02-0.12,0.05
			C4.64,3.26,4.63,3.3,4.63,3.34V13c0,0.05,0.02,0.09,0.05,0.12c0.03,0.03,0.07,0.05,0.12,0.05h1.65c0.05,0,0.09-0.02,0.12-0.05
			C6.6,13.09,6.61,13.05,6.61,13V9.1c0-0.05,0.02-0.07,0.07-0.07h1.31c0.04,0,0.07,0.02,0.08,0.06l1.76,3.96
			c0.04,0.09,0.1,0.13,0.2,0.13h1.73C11.86,13.17,11.91,13.13,11.91,13.06"/>
	</g>
</g>
</svg>
